<svg width="43" height="43" viewBox="0 0 43 43" fill="none" xmlns="http://www.w3.org/2000/svg">
<path d="M21.2288 0C9.49875 0 0 9.52 0 21.25C0 32.98 9.49875 42.5 21.2288 42.5C32.98 42.5 42.5 32.98 42.5 21.25C42.5 9.52 32.98 0 21.2288 0ZM35.955 12.75H29.6863C29.0063 10.0938 28.0287 7.54375 26.7537 5.185C30.6637 6.52375 33.915 9.24375 35.955 12.75ZM21.25 4.335C23.0138 6.885 24.395 9.71125 25.3088 12.75H17.1912C18.105 9.71125 19.4862 6.885 21.25 4.335ZM4.8025 25.5C4.4625 24.14 4.25 22.7162 4.25 21.25C4.25 19.7838 4.4625 18.36 4.8025 17H11.985C11.815 18.4025 11.6875 19.805 11.6875 21.25C11.6875 22.695 11.815 24.0975 11.985 25.5H4.8025ZM6.545 29.75H12.8137C13.4937 32.4062 14.4712 34.9562 15.7463 37.315C11.8362 35.9762 8.585 33.2775 6.545 29.75ZM12.8137 12.75H6.545C8.585 9.2225 11.8362 6.52375 15.7463 5.185C14.4712 7.54375 13.4937 10.0938 12.8137 12.75ZM21.25 38.165C19.4862 35.615 18.105 32.7887 17.1912 29.75H25.3088C24.395 32.7887 23.0138 35.615 21.25 38.165ZM26.2225 25.5H16.2775C16.0863 24.0975 15.9375 22.695 15.9375 21.25C15.9375 19.805 16.0863 18.3813 16.2775 17H26.2225C26.4137 18.3813 26.5625 19.805 26.5625 21.25C26.5625 22.695 26.4137 24.0975 26.2225 25.5ZM26.7537 37.315C28.0287 34.9562 29.0063 32.4062 29.6863 29.75H35.955C33.915 33.2562 30.6637 35.9762 26.7537 37.315ZM30.515 25.5C30.685 24.0975 30.8125 22.695 30.8125 21.25C30.8125 19.805 30.685 18.4025 30.515 17H37.6975C38.0375 18.36 38.25 19.7838 38.25 21.25C38.25 22.7162 38.0375 24.14 37.6975 25.5H30.515Z" fill="black"/>
</svg>