<svg xmlns="http://www.w3.org/2000/svg" xmlns:xlink="http://www.w3.org/1999/xlink" width="50%" viewBox="0 0 1090.899 460.415">
  <defs>
    <filter id="Ellipse_43" x="427.443" y="294.44" width="59" height="60" filterUnits="userSpaceOnUse">
      <feOffset dy="3" input="SourceAlpha"/>
      <feGaussianBlur stdDeviation="1.5" result="blur"/>
      <feFlood/>
      <feComposite operator="in" in2="blur"/>
      <feComposite in="SourceGraphic"/>
    </filter>
    <filter id="Path_71" x="486.443" y="294.44" width="59" height="60" filterUnits="userSpaceOnUse">
      <feOffset dy="3" input="SourceAlpha"/>
      <feGaussianBlur stdDeviation="1.5" result="blur-2"/>
      <feFlood/>
      <feComposite operator="in" in2="blur-2"/>
      <feComposite in="SourceGraphic"/>
    </filter>
    <filter id="Path_72" x="545.443" y="294.44" width="59" height="60" filterUnits="userSpaceOnUse">
      <feOffset dy="3" input="SourceAlpha"/>
      <feGaussianBlur stdDeviation="1.5" result="blur-3"/>
      <feFlood/>
      <feComposite operator="in" in2="blur-3"/>
      <feComposite in="SourceGraphic"/>
    </filter>
    <filter id="Path_73" x="604.443" y="294.44" width="59" height="60" filterUnits="userSpaceOnUse">
      <feOffset dy="3" input="SourceAlpha"/>
      <feGaussianBlur stdDeviation="1.5" result="blur-4"/>
      <feFlood/>
      <feComposite operator="in" in2="blur-4"/>
      <feComposite in="SourceGraphic"/>
    </filter>
  </defs>
  <g id="undraw_image" transform="translate(0.5 -17)">
    <path id="Shadow" d="M542.354,0c299.534,0,542.354,14.445,542.354,32.265,0,12.028-278.722,28.2-278.722,28.2S639.7,64.53,542.354,64.53C242.82,64.53,0,50.084,0,32.265S242.82,0,542.354,0Z" transform="translate(5.691 412.885)" fill="#191717"/>
    <g id="Person">
      <g id="Right_Arm" data-name="Right Arm" transform="matrix(0.94, -0.342, 0.342, 0.94, -69.153, 131.696)">
        <path id="Path_39" data-name="Path 39" d="M404.4,248.305,385.124,254l-12.236-4.454-14.036,5.157-14.672-4.085-17.5,5-.833,22.239h0s3.49-2.466,12.7,1.92l3.167,2.226,2.937,2.03a70.166,70.166,0,0,0,19.206,6.237l15.769,2.518,14.272-2.518,13.639,5.871Z" transform="translate(-74.848 -12.429)" fill="#fff" stroke="#707070" stroke-width="1"/>
      </g>
      <g id="Leg">
        <path id="Path_18" data-name="Path 18" d="M77.591,390.495,52.772,388.84l8.273,37.229,28.128-11.582Z" fill="#603636" stroke="#707070" stroke-width="1"/>
        <path id="Path_19" data-name="Path 19" d="M305.1,321s-26.529-45.433-49.28-53.085S214.1,290.391,214.1,290.391l-65.357,78.594,7.446,11.582,79.421-53.775,53.775,70.321,51.293-25.646Z" fill="#3a3865" stroke="#707070" stroke-width="1"/>
        <path id="Path_22" data-name="Path 22" d="M363.839,419.451l-18.2,11.582h-21.51L224.024,393.8,77.591,420.278,73.454,388.84,207.478,330.1l117.478,38.883Z" fill="#3a3865" stroke="#707070" stroke-width="1"/>
      </g>
      <path id="Head" d="M32.265,0A32.265,32.265,0,0,1,64.53,32.265c0,12.028-16.581,28.2-16.581,28.2S38.056,64.53,32.265,64.53a32.265,32.265,0,0,1,0-64.53Z" transform="translate(292.691 153.885)" fill="#603636"/>
      <path id="Neck" d="M369.258,434.788l14.892,35.574,35.574-14.892s-11.582-28.128-11.582-28.956S369.258,434.788,369.258,434.788Z" transform="translate(-58.781 -225.059)" fill="#603636"/>
      <path id="Foot" d="M119.171,628.365s7.41-12.559,4.28-14.025-16.422-7.311-16.422-7.311l-19.492-6.46s-28.126-41.8-28.743-5.45,20.479,45.089,20.479,45.089,18.815,40.492,29.474,34.035,21.323-28.376,21.323-28.376S110.85,635.535,119.171,628.365Z" transform="translate(-58.781 -225.059)" fill="#f2f2f2" stroke="#707070" stroke-width="1"/>
      <g id="Body">
        <path id="Path_21" data-name="Path 21" d="M368.845,583.289,361.4,589.08,301.006,568.4l-14.064-5.791L258.813,568.4s0-23.165,26.474-22.337l27.3,6.618,32.265,2.482Z" transform="translate(-58.781 -225.059)" fill="#603636" stroke="#707070" stroke-width="1"/>
        <path id="Path_25" data-name="Path 25" d="M467.22,540.029a185.378,185.378,0,0,1-9.091,57.337l-2.417,7.433L444.13,657.746l-12.41,3.309-9.1-11.582-18.2-13.236-13.237-21.51-11.351-18.912-3.541-5.907-12.41-62.048,12.41-57.084,5.162-6.85,14.693-3.078,21.129-11.342,8.654,1.415,29.783,24.819a185.22,185.22,0,0,1,11.508,64.289Z" transform="translate(-58.781 -225.059)" fill="#fff" stroke="#707070" stroke-width="1"/>
        <path id="Path_28" data-name="Path 28" d="M339.162,265.667l-29.1,44.579h-9.1l-5.791,16.546-13.237,3.31,35.574,38.883s27.167-27.188,41.7-48.177,16.416-35.778,16.416-35.778,9.9-24.329-6.023-34.257S339.162,265.667,339.162,265.667Z" fill="#fff" stroke="#707070" stroke-width="1"/>
      </g>
      <path id="Hair" d="M357.5,390.975c0-1.918.022-19.146,22.85-24.337.507.074,12.891-1.25,21.369,0,0,0,18.426,4.842,22.4,14.3s5.905,13.511,1.936,24.759-10.351,17.869-15.878,21.749-9.421-12.336-14.776-18.551c-.361-.318,3.22-.1-2.38-1.15s-3.751-6.706-3.751-6.706,9.2-14.649-14.318-10.912C373.639,390.672,357.5,392.894,357.5,390.975Z" transform="translate(-6.462 -267.978) rotate(7)" stroke="#707070" stroke-width="1"/>
      <path id="Ear" d="M5.791,0A5.791,5.791,0,1,1,0,5.791,5.791,5.791,0,0,1,5.791,0Z" transform="translate(335.297 184.082)" fill="#603636"/>
      <path id="hand" d="M12.05-4.171c3.566,0,6.385,4.729,8.715,7.594a11.64,11.64,0,0,1,2.587,7.134c0,5.83-1.543,6.7-7.991,6.7-1.935,0-7.386.885-9.266,0-3.475-1.624-7.086-2.614-7.086-6.7C-.991,4.726,5.6-4.171,12.05-4.171Z" transform="translate(209.297 285.551)" fill="#603636" stroke="#707070" stroke-width="1"/>
    </g>
    <g id="Computer" transform="translate(-1 455)">
      <path id="Path_33" data-name="Path 33" d="M1085.01,230.422H824.843V225.06H706.872v5.362H445.63a17.6,17.6,0,0,0-17.6,17.6V604.272a17.6,17.6,0,0,0,17.6,17.6h639.38a17.6,17.6,0,0,0,17.6-17.6V248.02a17.6,17.6,0,0,0-17.6-17.6Z" transform="translate(-57.781 -663.059)" fill="#3f3d56"/>
      <rect id="Screen" width="627.391" height="353.913" transform="translate(393.845 -401.536)" fill="#fff800" stroke="#bebcbc" stroke-width="1"/>
      <path id="Path_37" data-name="Path 37" d="M1120.23,609H1059v-4.412a.875.875,0,0,0-.875-.875h-20.993a.875.875,0,0,0-.875.875V609H1023.13v-4.412a.875.875,0,0,0-.875-.875h-20.993a.875.875,0,0,0-.875.875V609H987.272v-4.412a.875.875,0,0,0-.875-.875H965.4a.875.875,0,0,0-.875.875V609h-13.12v-4.412a.875.875,0,0,0-.875-.875H929.541a.875.875,0,0,0-.875.875V609h-13.12v-4.412a.875.875,0,0,0-.875-.875H893.678a.875.875,0,0,0-.875.875V609H879.683v-4.412a.875.875,0,0,0-.875-.875H857.815a.875.875,0,0,0-.875.875V609H843.82v-4.412a.875.875,0,0,0-.875-.875H678.5a.875.875,0,0,0-.875.875V609h-13.12v-4.412a.875.875,0,0,0-.875-.875H642.638a.875.875,0,0,0-.875.875V609h-13.12v-4.412a.875.875,0,0,0-.875-.875H606.775a.875.875,0,0,0-.875.875V609H592.78v-4.412a.875.875,0,0,0-.875-.875H570.912a.875.875,0,0,0-.875.875V609h-13.12v-4.412a.875.875,0,0,0-.875-.875H535.049a.875.875,0,0,0-.875.875V609h-13.12v-4.412a.875.875,0,0,0-.875-.875H499.186a.875.875,0,0,0-.875.875V609h-13.12v-4.412a.875.875,0,0,0-.875-.875H463.323a.875.875,0,0,0-.875.875V609H422.212a20.993,20.993,0,0,0-20.993,20.993v9.493a20.993,20.993,0,0,0,20.993,20.993H1120.23a20.993,20.993,0,0,0,20.993-20.993v-9.492A20.993,20.993,0,0,0,1120.23,609Z" transform="translate(-57.781 -663.059)" fill="#3f3d56"/>
      <circle id="Ellipse_40" data-name="Ellipse 40" cx="6.435" cy="6.435" r="6.435" transform="translate(700.569 -434.058)" fill="#f9a826"/>
      <g id="Color_Changer" data-name="Color Changer" transform="translate(-697.558 -707.059)">
        <g transform="matrix(1, 0, 0, 1, 698.06, 269.06)" filter="url(#Ellipse_43)">
          <g id="Ellipse_43-2" data-name="Ellipse 43" transform="translate(431.94 295.94)" fill="#2a335e" stroke="#000" stroke-width="1">
            <ellipse cx="25" cy="25.5" rx="25" ry="25.5" stroke="none"/>
            <ellipse cx="25" cy="25.5" rx="24.5" ry="25" fill="none"/>
          </g>
        </g>
        <g transform="matrix(1, 0, 0, 1, 698.06, 269.06)" filter="url(#Path_71)">
          <g id="Path_71-2" data-name="Path 71" transform="translate(490.94 295.94)" fill="#b125bf">
            <path d="M 25 50.5 C 21.69354057312012 50.5 18.48615074157715 49.83955001831055 15.46693992614746 48.53699111938477 C 12.5498104095459 47.27846908569336 9.929690361022949 45.47652053833008 7.679369926452637 43.18119049072266 C 5.428369998931885 40.88516998291016 3.661050081253052 38.21142959594727 2.426490068435669 35.23423004150391 C 1.148159980773926 32.15148162841797 0.5 28.87641906738281 0.5 25.5 C 0.5 22.12358093261719 1.148159980773926 18.84852027893066 2.426490068435669 15.76576995849609 C 3.661050081253052 12.78857040405273 5.428369998931885 10.11483001708984 7.679369926452637 7.818809986114502 C 9.929690361022949 5.52347993850708 12.5498104095459 3.721529960632324 15.46693992614746 2.46301007270813 C 18.48615074157715 1.160449981689453 21.69354057312012 0.5 25 0.5 C 28.30645942687988 0.5 31.51384925842285 1.160449981689453 34.53305816650391 2.46301007270813 C 37.45019149780273 3.721529960632324 40.07030868530273 5.52347993850708 42.32062911987305 7.818809986114502 C 44.57162857055664 10.11483001708984 46.33895111083984 12.78857040405273 47.57350921630859 15.76576995849609 C 48.85184097290039 18.84852027893066 49.5 22.12358093261719 49.5 25.5 C 49.5 28.87641906738281 48.85184097290039 32.15148162841797 47.57350921630859 35.23423004150391 C 46.33895111083984 38.21142959594727 44.57162857055664 40.88516998291016 42.32062911987305 43.18119049072266 C 40.07030868530273 45.47652053833008 37.45019149780273 47.27846908569336 34.53305816650391 48.53699111938477 C 31.51384925842285 49.83955001831055 28.30645942687988 50.5 25 50.5 Z" stroke="none"/>
            <path d="M 25 1 C 21.76205062866211 1 18.62130928039551 1.646690368652344 15.66500091552734 2.922111511230469 C 12.80772018432617 4.154811859130859 10.2410888671875 5.920070648193359 8.036399841308594 8.168849945068359 C 5.830371856689453 10.41901016235352 4.098308563232422 13.03942108154297 2.888351440429688 15.95729064941406 C 1.635330200195313 18.97901153564453 1 22.18964958190918 1 25.5 C 1 28.81035041809082 1.635330200195313 32.02098846435547 2.888351440429688 35.04270935058594 C 4.098308563232422 37.96057891845703 5.830371856689453 40.58098983764648 8.036399841308594 42.83115005493164 C 10.2410888671875 45.07992935180664 12.80772018432617 46.84519195556641 15.66500091552734 48.07788848876953 C 18.62130928039551 49.35330963134766 21.76205062866211 50 25 50 C 28.23794937133789 50 31.37869071960449 49.35330963134766 34.33499908447266 48.07788848876953 C 37.19227981567383 46.84519195556641 39.7589111328125 45.07992935180664 41.96360015869141 42.83115005493164 C 44.16963195800781 40.58098983764648 45.90169143676758 37.96057891845703 47.11164855957031 35.04270935058594 C 48.36466979980469 32.02098846435547 49 28.81035041809082 49 25.5 C 49 22.18964958190918 48.36466979980469 18.97901153564453 47.11164855957031 15.95729064941406 C 45.90169143676758 13.03942108154297 44.16963195800781 10.41901016235352 41.96360015869141 8.168849945068359 C 39.7589111328125 5.920070648193359 37.19227981567383 4.154811859130859 34.33499908447266 2.922111511230469 C 31.37869071960449 1.646690368652344 28.23794937133789 1 25 1 M 25 0 C 38.80712127685547 0 50 11.41674041748047 50 25.5 C 50 39.58325958251953 38.80712127685547 51 25 51 C 11.19287872314453 51 0 39.58325958251953 0 25.5 C 0 11.41674041748047 11.19287872314453 0 25 0 Z" stroke="none"/>
          </g>
        </g>
        <g transform="matrix(1, 0, 0, 1, 698.06, 269.06)" filter="url(#Path_72)">
          <g id="Path_72-2" data-name="Path 72" transform="translate(549.94 295.94)" fill="#5de44e">
            <path d="M 25 50.5 C 21.69354057312012 50.5 18.48615074157715 49.83955001831055 15.46693992614746 48.53699111938477 C 12.5498104095459 47.27846908569336 9.929690361022949 45.47652053833008 7.679369926452637 43.18119049072266 C 5.428369998931885 40.88516998291016 3.661050081253052 38.21142959594727 2.426490068435669 35.23423004150391 C 1.148159980773926 32.15148162841797 0.5 28.87641906738281 0.5 25.5 C 0.5 22.12358093261719 1.148159980773926 18.84852027893066 2.426490068435669 15.76576995849609 C 3.661050081253052 12.78857040405273 5.428369998931885 10.11483001708984 7.679369926452637 7.818809986114502 C 9.929690361022949 5.52347993850708 12.5498104095459 3.721529960632324 15.46693992614746 2.46301007270813 C 18.48615074157715 1.160449981689453 21.69354057312012 0.5 25 0.5 C 28.30645942687988 0.5 31.51384925842285 1.160449981689453 34.53305816650391 2.46301007270813 C 37.45019149780273 3.721529960632324 40.07030868530273 5.52347993850708 42.32062911987305 7.818809986114502 C 44.57162857055664 10.11483001708984 46.33895111083984 12.78857040405273 47.57350921630859 15.76576995849609 C 48.85184097290039 18.84852027893066 49.5 22.12358093261719 49.5 25.5 C 49.5 28.87641906738281 48.85184097290039 32.15148162841797 47.57350921630859 35.23423004150391 C 46.33895111083984 38.21142959594727 44.57162857055664 40.88516998291016 42.32062911987305 43.18119049072266 C 40.07030868530273 45.47652053833008 37.45019149780273 47.27846908569336 34.53305816650391 48.53699111938477 C 31.51384925842285 49.83955001831055 28.30645942687988 50.5 25 50.5 Z" stroke="none"/>
            <path d="M 25 1 C 21.76205062866211 1 18.62130928039551 1.646690368652344 15.66500091552734 2.922111511230469 C 12.80772018432617 4.154811859130859 10.2410888671875 5.920070648193359 8.036399841308594 8.168849945068359 C 5.830371856689453 10.41901016235352 4.098308563232422 13.03942108154297 2.888351440429688 15.95729064941406 C 1.635330200195313 18.97901153564453 1 22.18964958190918 1 25.5 C 1 28.81035041809082 1.635330200195313 32.02098846435547 2.888351440429688 35.04270935058594 C 4.098308563232422 37.96057891845703 5.830371856689453 40.58098983764648 8.036399841308594 42.83115005493164 C 10.2410888671875 45.07992935180664 12.80772018432617 46.84519195556641 15.66500091552734 48.07788848876953 C 18.62130928039551 49.35330963134766 21.76205062866211 50 25 50 C 28.23794937133789 50 31.37869071960449 49.35330963134766 34.33499908447266 48.07788848876953 C 37.19227981567383 46.84519195556641 39.7589111328125 45.07992935180664 41.96360015869141 42.83115005493164 C 44.16963195800781 40.58098983764648 45.90169143676758 37.96057891845703 47.11164855957031 35.04270935058594 C 48.36466979980469 32.02098846435547 49 28.81035041809082 49 25.5 C 49 22.18964958190918 48.36466979980469 18.97901153564453 47.11164855957031 15.95729064941406 C 45.90169143676758 13.03942108154297 44.16963195800781 10.41901016235352 41.96360015869141 8.168849945068359 C 39.7589111328125 5.920070648193359 37.19227981567383 4.154811859130859 34.33499908447266 2.922111511230469 C 31.37869071960449 1.646690368652344 28.23794937133789 1 25 1 M 25 0 C 38.80712127685547 0 50 11.41674041748047 50 25.5 C 50 39.58325958251953 38.80712127685547 51 25 51 C 11.19287872314453 51 0 39.58325958251953 0 25.5 C 0 11.41674041748047 11.19287872314453 0 25 0 Z" stroke="none"/>
          </g>
        </g>
        <g transform="matrix(1, 0, 0, 1, 698.06, 269.06)" filter="url(#Path_73)">
          <g id="Path_73-2" data-name="Path 73" transform="translate(608.94 295.94)" fill="#cb2525">
            <path d="M 25 50.5 C 21.69354057312012 50.5 18.48615074157715 49.83955001831055 15.46693992614746 48.53699111938477 C 12.5498104095459 47.27846908569336 9.929690361022949 45.47652053833008 7.679369926452637 43.18119049072266 C 5.428369998931885 40.88516998291016 3.661050081253052 38.21142959594727 2.426490068435669 35.23423004150391 C 1.148159980773926 32.15148162841797 0.5 28.87641906738281 0.5 25.5 C 0.5 22.12358093261719 1.148159980773926 18.84852027893066 2.426490068435669 15.76576995849609 C 3.661050081253052 12.78857040405273 5.428369998931885 10.11483001708984 7.679369926452637 7.818809986114502 C 9.929690361022949 5.52347993850708 12.5498104095459 3.721529960632324 15.46693992614746 2.46301007270813 C 18.48615074157715 1.160449981689453 21.69354057312012 0.5 25 0.5 C 28.30645942687988 0.5 31.51384925842285 1.160449981689453 34.53305816650391 2.46301007270813 C 37.45019149780273 3.721529960632324 40.07030868530273 5.52347993850708 42.32062911987305 7.818809986114502 C 44.57162857055664 10.11483001708984 46.33895111083984 12.78857040405273 47.57350921630859 15.76576995849609 C 48.85184097290039 18.84852027893066 49.5 22.12358093261719 49.5 25.5 C 49.5 28.87641906738281 48.85184097290039 32.15148162841797 47.57350921630859 35.23423004150391 C 46.33895111083984 38.21142959594727 44.57162857055664 40.88516998291016 42.32062911987305 43.18119049072266 C 40.07030868530273 45.47652053833008 37.45019149780273 47.27846908569336 34.53305816650391 48.53699111938477 C 31.51384925842285 49.83955001831055 28.30645942687988 50.5 25 50.5 Z" stroke="none"/>
            <path d="M 25 1 C 21.76205062866211 1 18.62130928039551 1.646690368652344 15.66500091552734 2.922111511230469 C 12.80772018432617 4.154811859130859 10.2410888671875 5.920070648193359 8.036399841308594 8.168849945068359 C 5.830371856689453 10.41901016235352 4.098308563232422 13.03942108154297 2.888351440429688 15.95729064941406 C 1.635330200195313 18.97901153564453 1 22.18964958190918 1 25.5 C 1 28.81035041809082 1.635330200195313 32.02098846435547 2.888351440429688 35.04270935058594 C 4.098308563232422 37.96057891845703 5.830371856689453 40.58098983764648 8.036399841308594 42.83115005493164 C 10.2410888671875 45.07992935180664 12.80772018432617 46.84519195556641 15.66500091552734 48.07788848876953 C 18.62130928039551 49.35330963134766 21.76205062866211 50 25 50 C 28.23794937133789 50 31.37869071960449 49.35330963134766 34.33499908447266 48.07788848876953 C 37.19227981567383 46.84519195556641 39.7589111328125 45.07992935180664 41.96360015869141 42.83115005493164 C 44.16963195800781 40.58098983764648 45.90169143676758 37.96057891845703 47.11164855957031 35.04270935058594 C 48.36466979980469 32.02098846435547 49 28.81035041809082 49 25.5 C 49 22.18964958190918 48.36466979980469 18.97901153564453 47.11164855957031 15.95729064941406 C 45.90169143676758 13.03942108154297 44.16963195800781 10.41901016235352 41.96360015869141 8.168849945068359 C 39.7589111328125 5.920070648193359 37.19227981567383 4.154811859130859 34.33499908447266 2.922111511230469 C 31.37869071960449 1.646690368652344 28.23794937133789 1 25 1 M 25 0 C 38.80712127685547 0 50 11.41674041748047 50 25.5 C 50 39.58325958251953 38.80712127685547 51 25 51 C 11.19287872314453 51 0 39.58325958251953 0 25.5 C 0 11.41674041748047 11.19287872314453 0 25 0 Z" stroke="none"/>
          </g>
        </g>
        <text id="Change_Theme" data-name="Change Theme" transform="translate(1128 548)" font-size="31" font-family="SourceCodePro-Medium, Source Code Pro" font-weight="500"><tspan x="0" y="0">Change Theme</tspan></text>
      </g>
    </g>
  </g>
</svg>
