<svg xmlns="http://www.w3.org/2000/svg" width="547.584" height="523" viewBox="0 0 547.584 523">
  <g id="undraw_Add_notes_re_ln36" transform="translate(61.751 13.526)">
    <path id="Neck" d="M419.724,434.788l-14.892,35.574L369.258,455.47s11.582-28.128,11.582-28.956S419.724,434.788,419.724,434.788Z" transform="translate(-358.223 -373)" fill="#603636"/>
    <path id="Shadow" d="M108.495,0c59.92,0,108.495,7.026,108.495,15.694,0,5.851-55.757,13.718-55.757,13.718s-33.264,1.976-52.738,1.976C48.575,31.388,0,24.361,0,15.694S48.575,0,108.495,0Z" transform="translate(-61.751 478.086)" fill="#191717"/>
    <path id="Path_41" data-name="Path 41" d="M677.542,336.347H597.8a11.478,11.478,0,0,1-9.066-4.394h0a11.621,11.621,0,0,1-2.177-9.968,201.631,201.631,0,0,0,0-93.647,11.624,11.624,0,0,1,2.177-9.967,11.478,11.478,0,0,1,9.066-4.394h79.741a11.624,11.624,0,0,1,11.439,9.755,337.961,337.961,0,0,1,0,102.858,11.623,11.623,0,0,1-11.438,9.756Z" transform="translate(-357.083 -208.25)" fill="#371515"/>
    <path id="Path_42" data-name="Path 42" d="M597.8,219.978a5.513,5.513,0,0,0-4.355,2.108,5.659,5.659,0,0,0-1.054,4.854,207.655,207.655,0,0,1,0,96.445,5.656,5.656,0,0,0,1.053,4.853h0a5.511,5.511,0,0,0,4.354,2.109h79.741a5.583,5.583,0,0,0,5.509-4.667,331.985,331.985,0,0,0,0-101.035,5.583,5.583,0,0,0-5.509-4.667Z" transform="translate(-357.083 -208.25)" fill="#fff"/>
    <path id="Path_62" data-name="Path 62" d="M510.949,507.413a13.5,13.5,0,0,1-9.678-5.729,12.549,12.549,0,0,1-1.658-10.832l-38.7-26.882,23.166-8.5,33.2,26.83a12.924,12.924,0,0,1,8.4,15.265,13.473,13.473,0,0,1-14.732,9.844Z" transform="translate(-377.421 -264.463)" fill="#603636"/>
    <path id="Path_43" data-name="Path 43" d="M660.141,248.829H618.3a6.006,6.006,0,0,1-6-6v-2.345a6.006,6.006,0,0,1,6-6h41.845a6.006,6.006,0,0,1,6,6v2.344a6.006,6.006,0,0,1-6,6Z" transform="translate(-357.083 -208.25)" fill="#222126"/>
    <path id="Path_44" data-name="Path 44" d="M660.141,278.454H618.3a6.006,6.006,0,0,1-6-6V270.11a6.006,6.006,0,0,1,6-6h41.845a6.006,6.006,0,0,1,6,6v2.345a6.006,6.006,0,0,1-6,6Z" transform="translate(-357.083 -208.25)" fill="#222126"/>
    <path id="Path_45" data-name="Path 45" d="M660.141,308.08H618.3a6.006,6.006,0,0,1-6-6v-2.345a6.006,6.006,0,0,1,6-6h41.845a6.006,6.006,0,0,1,6,6v2.345A6.006,6.006,0,0,1,660.141,308.08Z" transform="translate(-357.083 -208.25)" fill="#222126"/>
    <path id="Path_46" data-name="Path 46" d="M827.542,412.347H747.8a11.478,11.478,0,0,1-9.066-4.394h0a11.621,11.621,0,0,1-2.177-9.968,201.631,201.631,0,0,0,0-93.647,11.624,11.624,0,0,1,2.177-9.967,11.477,11.477,0,0,1,9.066-4.394h79.741a11.624,11.624,0,0,1,11.439,9.755,337.961,337.961,0,0,1,0,102.858,11.623,11.623,0,0,1-11.438,9.756Z" transform="translate(-357.083 -208.25)" fill="#2e0d0d"/>
    <path id="Path_47" data-name="Path 47" d="M747.8,295.978a5.513,5.513,0,0,0-4.354,2.108,5.659,5.659,0,0,0-1.054,4.854,207.656,207.656,0,0,1,0,96.445,5.656,5.656,0,0,0,1.053,4.853h0a5.511,5.511,0,0,0,4.354,2.109h79.741a5.583,5.583,0,0,0,5.509-4.667,331.983,331.983,0,0,0,0-101.035,5.583,5.583,0,0,0-5.509-4.667Z" transform="translate(-357.083 -208.25)" fill="#fff"/>
    <path id="Path_48" data-name="Path 48" d="M668.542,498.847H588.8a11.976,11.976,0,0,1-9.458-4.584,12.119,12.119,0,0,1-2.27-10.394,201.13,201.13,0,0,0,0-93.414,12.121,12.121,0,0,1,2.27-10.394,11.976,11.976,0,0,1,9.458-4.584h79.741a12.127,12.127,0,0,1,11.933,10.179,338.457,338.457,0,0,1,0,103.011,12.127,12.127,0,0,1-11.932,10.179Z" transform="translate(-356.083 -228.25)" fill="#5a5a5a"/>
    <path id="Path_49" data-name="Path 49" d="M810.141,339.829H768.3a6.006,6.006,0,0,1-6-6v-2.345a6.006,6.006,0,0,1,6-6h41.845a6.006,6.006,0,0,1,6,6v2.344a6.006,6.006,0,0,1-6,6Z" transform="translate(-357.083 -208.25)" fill="#222126"/>
    <path id="Path_50" data-name="Path 50" d="M810.141,369.454H768.3a6.006,6.006,0,0,1-6-6V361.11a6.006,6.006,0,0,1,6-6h41.845a6.006,6.006,0,0,1,6,6v2.345A6.006,6.006,0,0,1,810.141,369.454Z" transform="translate(-357.083 -208.25)" fill="#222126"/>
    <path id="Path_63" data-name="Path 63" d="M95.066,126.423a7.6,7.6,0,0,1-3.287-.75L52.527,106.708a62.018,62.018,0,0,1-30.266-31.5L3.6,31.194A19.542,19.542,0,0,1,8.815,3.6,21.205,21.205,0,0,1,37.743,8.726L71.082,77l32.672,26.637a6.943,6.943,0,0,1,2.15,7.867l-3.957,10.3a7.072,7.072,0,0,1-2.676,3.339,7.52,7.52,0,0,1-4.2,1.274Z" transform="matrix(1, -0.017, 0.017, 1, 5.782, 89.361)" fill="#fff"/>
    <circle id="Ellipse_42" data-name="Ellipse 42" cx="23" cy="23" r="23" transform="translate(249.811 185.5)" fill="#fff"/>
    <path id="Path_51" data-name="Path 51" d="M639.894,433.75h-8v-8a3,3,0,0,0-6,0v8h-8a3,3,0,0,0,0,6h8v8a3,3,0,0,0,6,0v-8h8a3,3,0,1,0,0-6Z" transform="translate(-356.083 -228.25)" fill="#5a5a5a"/>
    <path id="Path_52" data-name="Path 52" d="M657.894,225.25h-42a4.505,4.505,0,0,1-4.5-4.5v-8a4.5,4.5,0,0,1,4.5-4.5h42a4.505,4.505,0,0,1,4.5,4.5v8a4.505,4.505,0,0,1-4.5,4.5Z" transform="translate(-357.083 -208.25)" fill="#585656"/>
    <path id="Path_53" data-name="Path 53" d="M809.894,302.25h-42a4.505,4.505,0,0,1-4.5-4.5v-8a4.505,4.505,0,0,1,4.5-4.5h42a4.505,4.505,0,0,1,4.5,4.5v8a4.505,4.505,0,0,1-4.5,4.5Z" transform="translate(-357.083 -208.25)" fill="#565252"/>
    <path id="Path_54" data-name="Path 54" d="M88.6,484.627H104.96l5.116-60.854H88.594Z" transform="translate(-21.439 -13.566)" fill="#603636"/>
    <path id="Path_55" data-name="Path 55" d="M442.552,675.308h32.126c11.307,0,20.473,9.986,20.473,22.3v.724s-41.232,7.572-50.509,0S442.552,675.308,442.552,675.308Z" transform="translate(-379.083 -204.25)" fill="#fff"/>
    <path id="Path_56" data-name="Path 56" d="M22.6,484.627H38.96l7.785-60.854H22.594Z" transform="translate(-48.131 -13.566)" fill="#603636"/>
    <path id="Path_57" data-name="Path 57" d="M376.552,675.309l33.99,0h0c11.964,0,21.662,11.286,21.661,25.209v.818s-50.2,14.852-55.652-.818c-4.281-12.3-1.841-20.823-.477-24.2A8.839,8.839,0,0,1,376.552,675.309Z" transform="translate(-314.805 -251.229) rotate(7)" fill="#fff"/>
    <path id="Path_58" data-name="Path 58" d="M378.509,722.73c-1.668,0,1.228,1.09,0,0-3.474-4.2.046-10.924-6.562-239.426l93.179,22.459,28.749,83.155a87.662,87.662,0,0,1,4.732,33.232l-3.57,80.605c-.169,3.43-2.808,23-6.37,23H472.786c-3.335-.013-6.2-19.262-6.657-22.447l-11.17-88.976a47.587,47.587,0,0,0-7.383-19.514l-22.318-62.47c-.3-.459-2.047,28.9-2.117,29.441-17.633,151.2-21.063,160.941-21.063,160.941C386.588,722.737,378.636,722.73,378.509,722.73Z" transform="translate(-405.214 -260.194)" fill="#181639" stroke="#707070" stroke-width="1"/>
    <path id="Path_59" data-name="Path 59" d="M98.539,174.135,5.115,150.083A6.439,6.439,0,0,1,.221,142.6L21.381,32.335C22.727,25.827,34.06,5.176,34.06,5.176l17.132-10.9S72.116-.866,83.449,6.038c1.295.779,6.859,7.413,8.135,8.31.354.252,10.182,17.523,10.182,17.523l-.253,14.517Z" transform="matrix(1, -0.017, 0.017, 1, -39.28, 78.78)" fill="#fff" stroke="#707070" stroke-width="1"/>
    <path id="Path_60" data-name="Path 60" d="M2.363,64.9A12.562,12.562,0,0,1,.546,54.094,13.071,13.071,0,0,1,7.975,45.82L3.833,0l21.8,11.4.591,41.762a12.806,12.806,0,0,1-6.508,16.094A13.8,13.8,0,0,1,2.363,64.9Z" transform="matrix(1, -0.017, 0.017, 1, -28.649, 188.09)" fill="#603636" stroke="#707070" stroke-width="1"/>
    <path id="Path_61" data-name="Path 61" d="M19.841,146.144a7.649,7.649,0,0,1-1.823-.224,7.22,7.22,0,0,1-5.3-5.133L1.979,99.75A58.975,58.975,0,0,1,6.971,57.112l22.407-42.3C32.322,4.272,43.492-2.032,54.473.647A20.473,20.473,0,0,1,67.125,9.793a19.421,19.421,0,0,1,2.218,15.332L37.451,93.961l.406,41.226a7.1,7.1,0,0,1-4.78,6.695L22.392,145.7a7.552,7.552,0,0,1-2.55.442Z" transform="matrix(1, -0.017, 0.017, 1, -37.313, 81.894)" fill="#fff" stroke="#707070" stroke-width="1"/>
    <path id="Path_65" data-name="Path 65" d="M.057,87.508.773,45.133,24.025.015,5.369,46.331Z" transform="matrix(1, -0.017, 0.017, 1, -9.746, 129.873)" opacity="0.2"/>
    <path id="Path_66" data-name="Path 66" d="M554.16,564.232l-73.638-30.595a11.478,11.478,0,0,1-6.686-7.536h0a11.622,11.622,0,0,1,1.815-10.04,201.632,201.632,0,0,0,35.93-86.48,11.624,11.624,0,0,1,5.834-8.369,11.478,11.478,0,0,1,10.058-.579l73.638,30.6a11.623,11.623,0,0,1,6.82,13.4,337.962,337.962,0,0,1-39.465,94.986,11.624,11.624,0,0,1-14.307,4.619Z" transform="translate(-367.083 -240.25)" fill="#2b1010"/>
    <path id="Path_67" data-name="Path 67" d="M525.171,426.174a5.513,5.513,0,0,0-4.83.276,5.659,5.659,0,0,0-2.835,4.078,207.656,207.656,0,0,1-37,89.064,5.656,5.656,0,0,0-.889,4.885h0a5.511,5.511,0,0,0,3.212,3.618l73.638,30.6a5.582,5.582,0,0,0,6.878-2.2,331.989,331.989,0,0,0,38.766-93.3,5.583,5.583,0,0,0-3.3-6.423Z" transform="translate(-367.083 -240.25)" fill="#fff"/>
    <path id="Path_68" data-name="Path 68" d="M564.38,494.281l-38.642-16.055a6.006,6.006,0,0,1-3.239-7.843l.9-2.165a6.006,6.006,0,0,1,7.843-3.239l38.642,16.055a6.006,6.006,0,0,1,3.239,7.843l-.9,2.165a6.006,6.006,0,0,1-7.843,3.239Z" transform="translate(-367.083 -240.25)" fill="#232227"/>
    <path id="Path_69" data-name="Path 69" d="M553.013,521.64l-38.642-16.055a6.006,6.006,0,0,1-3.239-7.843l.9-2.165a6.006,6.006,0,0,1,7.843-3.239l38.643,16.056a6.006,6.006,0,0,1,3.239,7.843l-.9,2.165A6.006,6.006,0,0,1,553.013,521.64Z" transform="translate(-367.083 -240.25)" fill="#222126"/>
    <path id="Path_70" data-name="Path 70" d="M579.864,455.832a4.489,4.489,0,0,1-1.687-.331l-38.938-15.743a4.505,4.505,0,0,1-2.485-5.858l3-7.417A4.5,4.5,0,0,1,545.611,424l38.938,15.743a4.505,4.505,0,0,1,2.485,5.858l-3,7.417A4.511,4.511,0,0,1,579.864,455.832Z" transform="translate(-367.083 -240.25)" fill="#434242"/>
    <path id="Head" d="M32.265,0A32.265,32.265,0,0,0,0,32.265c0,12.028,16.581,28.2,16.581,28.2s9.892,4.062,15.684,4.062a32.265,32.265,0,1,0,0-64.53Z" transform="translate(21.996 15.944)" fill="#603636" stroke="#707070" stroke-width="1"/>
    <path id="Hair" d="M0,37.058C0,38.976.022,56.2,22.85,61.4c.507-.074,12.891,1.25,21.369,0,0,0,18.426-4.842,22.4-14.3s5.905-13.511,1.936-24.759S58.205,4.472,52.679.592,43.257,12.928,37.9,19.144c-.361.318,3.22.1-2.38,1.15S31.772,27,31.772,27s9.2,14.649-14.318,10.912C16.138,37.361,0,35.14,0,37.058Z" transform="translate(60.24 80.973) rotate(-135)" stroke="#707070" stroke-width="1"/>
  </g>
</svg>
