<svg width="53" height="51" viewBox="0 0 53 51" fill="none" xmlns="http://www.w3.org/2000/svg">
<path d="M26.0481 0C11.6652 0 0 11.663 0 26.0481C0 37.557 7.46277 47.3207 17.8147 50.7655C19.1149 51.0065 19.5361 50.199 19.5361 49.513V44.6638C12.2904 46.2397 10.7817 41.5901 10.7817 41.5901C9.59655 38.5794 7.88823 37.7784 7.88823 37.7784C5.52436 36.1612 8.06839 36.196 8.06839 36.196C10.6841 36.3783 12.0603 38.8811 12.0603 38.8811C14.3829 42.8621 18.1533 41.7117 19.6403 41.0453C19.8725 39.363 20.5476 38.2125 21.2943 37.5635C15.5095 36.9014 9.42723 34.6678 9.42723 24.6892C9.42723 21.8435 10.4453 19.5209 12.1102 17.6975C11.841 17.0398 10.9489 14.3894 12.3642 10.8034C12.3642 10.8034 14.5522 10.1045 19.5295 13.4734C21.6069 12.896 23.834 12.6073 26.0481 12.5964C28.2622 12.6073 30.4914 12.896 32.5731 13.4734C37.5461 10.1045 39.7298 10.8034 39.7298 10.8034C41.1473 14.3916 40.2551 17.042 39.986 17.6975C41.6574 19.5209 42.6668 21.8456 42.6668 24.6892C42.6668 34.6939 36.5737 36.8971 30.7736 37.5418C31.707 38.3493 32.5601 39.9339 32.5601 42.365V49.513C32.5601 50.2055 32.9769 51.0195 34.2988 50.7634C44.6421 47.3142 52.0962 37.5526 52.0962 26.0481C52.0962 11.663 40.4331 0 26.0481 0Z" fill="black"/>
</svg>